<svg xmlns:dc="http://purl.org/dc/elements/1.1/" xmlns:cc="http://creativecommons.org/ns#" xmlns:rdf="http://www.w3.org/1999/02/22-rdf-syntax-ns#" xmlns:svg="http://www.w3.org/2000/svg" xmlns="http://www.w3.org/2000/svg" xmlns:sodipodi="http://sodipodi.sourceforge.net/DTD/sodipodi-0.dtd" xmlns:inkscape="http://www.inkscape.org/namespaces/inkscape" width="500" height="120" viewBox="0 0 132.29166 31.750001" version="1.1" id="svg8" inkscape:version="0.92.5 (2060ec1f9f, 2020-04-08)" sodipodi:docname="twindovelogo.svg">
  <defs id="defs2"/>
  <sodipodi:namedview id="base" pagecolor="#ffffff" bordercolor="#666666" borderopacity="1.0" inkscape:pageopacity="0.0" inkscape:pageshadow="2" inkscape:zoom="1.4" inkscape:cx="284.6306" inkscape:cy="8.7045208" inkscape:document-units="mm" inkscape:current-layer="layer2" showgrid="false" units="px" inkscape:window-width="1366" inkscape:window-height="670" inkscape:window-x="0" inkscape:window-y="25" inkscape:window-maximized="1"/>
  <metadata id="metadata5">
    <rdf:RDF>
      <cc:Work rdf:about="">
        <dc:format>image/svg+xml</dc:format>
        <dc:type rdf:resource="http://purl.org/dc/dcmitype/StillImage"/>
        <dc:title/>
      </cc:Work>
    </rdf:RDF>
  </metadata>
  <g inkscape:groupmode="layer" id="layer2" inkscape:label="Logo" style="display:inline">
    <path style="fill:#abce62;stroke:none;stroke-width:0.26458332px;stroke-linecap:butt;stroke-linejoin:miter;stroke-opacity:1;fill-opacity:0.97647059" d="m 101.95908,12.473214 -5.480658,1.464658 c 2.62788,2.032001 5.722688,3.316916 8.976938,4.346726 l -0.23646,-1.889733 z" id="path39" inkscape:connector-curvature="0" sodipodi:nodetypes="ccccc"/>
    <path style="font-style:normal;font-weight:normal;font-size:13.69022465px;line-height:1.25;font-family:sans-serif;letter-spacing:-1.49738455px;word-spacing:0px;fill:#000;fill-opacity:1;stroke:none;stroke-width:0.34225559" d="m 85.366364,5.3614298 c -1.030087,-0.00254 -2.097638,0.036956 -3.203938,0.1193726 4.633066,8.1729796 9.49487,9.5565116 18.946124,12.1424116 -3.585557,-2.176638 -7.083533,-4.441132 -8.268223,-9.0242558 4.823356,0.9508689 8.941123,3.5692688 12.378563,7.7959068 l -0.64388,6.72517 c -0.82054,0.501054 -1.68182,0.929785 -2.52595,1.423686 1.44103,-1.959007 1.88954,-4.505293 2.46135,-6.96805 l -1.46451,-0.377755 c -0.32666,2.654387 -0.57444,5.36527 -1.52652,7.664132 -0.37605,0.238116 -0.74546,0.496845 -1.10381,0.786515 l 0.77463,-1.690336 h -0.49609 c -0.44864,0.564445 -0.944167,0.938451 -1.487247,1.121896 -0.54308,0.176388 -1.44666,0.264583 -2.70991,0.264583 h -0.47801 c -1.00352,0 -1.581813,-0.03866 -1.735293,-0.116272 -0.08264,-0.0635 -0.124023,-0.179999 -0.124023,-0.349333 v -2.603458 h 2.709396 c 0.73198,0 1.21598,0.05989 1.45211,0.179834 0.23612,0.119944 0.40164,0.39868 0.49609,0.836124 h 0.42478 v -2.455147 h -0.42478 c -0.0945,0.373944 -0.22435,0.620579 -0.38964,0.740523 -0.1889,0.176389 -0.70852,0.264584 -1.55856,0.264584 H 94.159627 V 19.49235 c 0,-0.148167 0.0351,-0.243437 0.105936,-0.285771 0.08264,-0.04939 0.242401,-0.0739 0.47852,-0.0739 h 2.39056 c 1.00352,0 1.66457,0.06697 1.98334,0.201021 0.31876,0.134056 0.555,0.4373 0.70848,0.910022 h 0.442867 l -0.0532,-1.513602 h -8.937952 -0.465604 -3.164665 v 0.201021 c 0.472244,0.01411 0.802775,0.05657 0.991669,0.127124 0.200705,0.07056 0.300757,0.176699 0.300757,0.31781 0,0.183444 -0.112096,0.437155 -0.336412,0.761711 l -2.621029,3.894852 -2.656168,-3.577042 c -0.484052,-0.649111 -0.726053,-1.03727 -0.726053,-1.16427 0,-0.204611 0.271338,-0.321111 0.814419,-0.349333 0.177091,0 0.354142,-0.0038 0.531233,-0.01085 v -0.201021 h -4.728393 v 0.201021 c 0.425022,0.0071 0.749784,0.07782 0.974101,0.211873 0.224316,0.127 0.525507,0.426965 0.903303,0.899687 l 4.356325,5.820833 h 0.283672 l 3.913458,-5.958292 c 0.306959,-0.416278 0.548962,-0.677582 0.726053,-0.783415 0.140483,-0.08955 0.362374,-0.146757 0.658874,-0.17415 0.529473,0.0393 0.887909,0.106603 1.053684,0.205673 0.188894,0.112889 0.283702,0.352963 0.283702,0.719852 v 4.720126 c 0,0.359833 -0.100568,0.603188 -0.301273,0.730188 -0.200705,0.119944 -0.619757,0.190706 -1.257287,0.211873 v 0.201021 h 9.495026 c -0.0271,0.02257 -0.0547,0.04369 -0.0816,0.06666 1.16778,-0.461003 2.19186,-0.10461 4.21059,-1.237651 1.60656,0.04453 3.1452,0.239099 4.8457,-1.461409 1.98385,-1.983848 0.75841,-6.387655 6.35465,-7.72511 -0.81664,-0.884371 -1.64328,-1.762547 -2.95279,-2.338875 -1.0678,-0.06431 -1.51415,0.04912 -1.81074,0.205155 0.55552,-1.247152 1.60635,-2.375456 3.71864,-3.210657 -1.9959,-1.2485688 -3.56678,-1.6805289 -4.80694,-1.6763829 -2.3676,0.00791 -3.53021,1.6051734 -4.14652,2.1440549 3.56402,-1.4683638 6.20003,-1.1920732 6.9975,-0.01964 -1.24496,0.531895 -2.95795,1.399192 -3.41736,3.047359 -0.23281,5.892838 -2.15002,8.010027 -4.4328,9.455754 l 1.42523,-6.449219 C 101.79441,9.343533 95.323873,5.3859742 85.366364,5.3614298 Z m -1.172022,0.9224243 7.276041,1.2758912 c 0.796341,3.2158847 2.619502,6.4561687 5.00796,8.1736607 C 89.084561,13.344923 86.832825,9.7697156 84.194342,6.2838541 Z m 26.491398,7.4310709 c 1.10367,0.03056 2.38948,0.189536 3.17966,1.404049 -4.18186,1.386561 -2.78812,5.244122 -5.38624,7.795906 -1.25482,0.831974 -2.37163,1.111277 -3.46645,1.30328 1.04291,-0.672311 2.32726,-1.717777 3.9827,-3.395142 1.55842,-1.936166 0.85716,-4.69707 1.69033,-7.108093 z m -35.252102,4.856551 c -1.676471,0 -3.057771,0.345702 -4.143933,1.037146 -1.086165,0.684389 -1.62936,1.559257 -1.62936,2.624646 0,0.592667 0.171286,1.132706 0.513665,1.619539 0.342379,0.479778 0.790766,0.86414 1.345655,1.153418 0.566693,0.289278 1.17484,0.511404 1.824178,0.666626 0.649335,0.148167 1.310391,0.222209 1.98334,0.222209 1.747309,0 3.169986,-0.334829 4.267957,-1.005107 1.09797,-0.677333 1.646928,-1.548921 1.646928,-2.61431 0,-1.150056 -0.566767,-2.053229 -1.700154,-2.709396 -1.121582,-0.663222 -2.490838,-0.994771 -4.108276,-0.994771 z m -59.920374,0.158647 -0.08837,1.799373 h 0.40721 c 0.200704,-0.578556 0.47256,-0.949282 0.814937,-1.11156 0.342378,-0.162278 1.014961,-0.243396 2.018482,-0.243396 h 0.920874 v 5.291667 c 0,0.451555 -0.09429,0.737367 -0.283187,0.857312 -0.177092,0.119944 -0.631761,0.190706 -1.363741,0.211873 v 0.201021 h 5.18883 v -0.201021 c -0.720173,-0.02117 -1.18637,-0.08813 -1.398881,-0.201021 -0.21251,-0.119945 -0.318843,-0.367096 -0.318843,-0.74104 V 19.17454 h 0.95653 c 1.003521,0 1.67034,0.08112 2.000912,0.243396 0.342378,0.155222 0.619997,0.525949 0.832507,1.11156 h 0.407211 l -0.09405,-1.5875 c 0.383625,0.03034 0.676535,0.109789 0.868164,0.243396 0.224317,0.148167 0.507699,0.476436 0.850077,0.984436 l 3.435448,5.693709 h 0.248047 l 2.726965,-4.487581 2.83342,4.487581 h 0.265616 c 0.708369,-1.326444 1.227992,-2.275355 1.558562,-2.846854 0.342379,-0.5715 1.033285,-1.686444 2.072225,-3.344499 0.165285,-0.268111 0.330292,-0.4445 0.495578,-0.529167 0.145277,-0.08062 0.416493,-0.143805 0.798917,-0.191719 0.514268,0.03165 0.859792,0.09122 1.020093,0.181384 0.200702,0.105833 0.301273,0.352468 0.301273,0.740523 v 4.720126 c 0,0.395111 -0.100571,0.649338 -0.301273,0.762227 -0.200705,0.105833 -0.678947,0.165723 -1.434539,0.179834 v 0.201021 h 4.688086 0.571542 3.60753 v -0.201021 c -0.69656,-0.02117 -1.156994,-0.116437 -1.38131,-0.285771 -0.212511,-0.176389 -0.318844,-0.529166 -0.318844,-1.058333 v -4.159436 l 7.845517,5.831685 h 0.300758 v -5.588289 c 0,-0.246944 0.02985,-0.451122 0.08888,-0.613399 0.07084,-0.169334 0.141555,-0.296706 0.212392,-0.381372 0.07084,-0.09172 0.200742,-0.161968 0.389638,-0.211357 0.1889,-0.04939 0.330333,-0.07769 0.424781,-0.08475 0.06044,-0.008 0.208531,-0.02018 0.322461,-0.03049 0.499819,0.03927 0.828662,0.101634 0.965316,0.189135 0.177091,0.09878 0.265618,0.342133 0.265618,0.730188 v 4.720126 c 0,0.381 -0.09429,0.628151 -0.283189,0.74104 -0.177091,0.112889 -0.602424,0.179854 -1.275373,0.201021 v 0.201021 h 5.029672 c 1.027131,0 1.947997,-0.07404 2.76262,-0.222208 0.814623,-0.155223 1.469914,-0.35284 1.965772,-0.592729 0.495859,-0.239889 0.909146,-0.518625 1.239719,-0.836125 0.33057,-0.324555 0.554765,-0.638672 0.672827,-0.942061 0.129866,-0.310444 0.194818,-0.624045 0.194818,-0.941545 0,-1.128888 -0.649525,-1.989604 -1.948201,-2.582271 -1.286867,-0.592667 -2.998695,-0.889351 -5.135602,-0.889351 h -4.209563 -0.572058 -3.589444 v 0.201021 c 0.472242,0.02117 0.808535,0.06034 1.00924,0.116789 0.212511,0.04939 0.377516,0.169168 0.495578,0.359668 0.129863,0.183444 0.194818,0.472536 0.194818,0.867647 v 3.566707 l -6.817672,-5.111832 h -2.456696 -0.571542 -4.116028 -0.572058 -2.934703 v 0.201021 c 0.448633,0.02117 0.761868,0.06742 0.938959,0.137976 0.188899,0.0635 0.283189,0.165847 0.283189,0.306958 0,0.204611 -0.09429,0.476271 -0.283189,0.814937 L 37.0427,23.768056 34.704858,20.158974 c 0,-0.01411 -0.0351,-0.06692 -0.105937,-0.158647 -0.05903,-0.09172 -0.08888,-0.144535 -0.08888,-0.158646 -0.200705,-0.296334 -0.300757,-0.476519 -0.300757,-0.540019 0,-0.239889 0.460436,-0.363464 1.38131,-0.37052 v -0.201021 h -4.728392 v 0.201021 c 0.507664,0.0071 0.855998,0.06039 1.044898,0.159163 0.188899,0.09878 0.442428,0.359565 0.761193,0.782898 l 0.566891,0.867648 -1.894975,2.995166 -2.550232,-3.979086 c -0.129868,-0.197555 -0.19482,-0.359792 -0.19482,-0.486792 0,-0.119944 0.077,-0.201062 0.230478,-0.243396 0.165285,-0.04939 0.472239,-0.08149 0.920872,-0.0956 v -0.201021 h -4.245218 -0.111104 z m 30.759878,0.212907 c 0.227883,0.01512 0.414171,0.04545 0.552424,0.09405 0.200702,0.0635 0.472559,0.225736 0.814935,0.486792 v 4.667415 c 0,0.543278 -0.100568,0.896055 -0.301273,1.058333 -0.178679,0.14447 -0.580022,0.232563 -1.179772,0.270785 -0.518872,-0.02711 -0.87975,-0.08751 -1.064019,-0.186035 -0.212511,-0.119945 -0.318844,-0.367096 -0.318842,-0.74104 v -4.720126 c -2e-6,-0.381 0.100053,-0.627634 0.300755,-0.740523 0.187542,-0.09962 0.594498,-0.161462 1.195792,-0.189651 z m 29.160496,0.02015 c 0.330571,0 0.654818,0.0283 0.973582,0.08475 0.330573,0.04939 0.66738,0.151735 1.009759,0.306958 0.354184,0.155222 0.661138,0.352323 0.920874,0.592212 0.259734,0.232833 0.4724,0.550746 0.637686,0.952913 0.165288,0.395111 0.247531,0.850236 0.247531,1.365291 0,0.613834 -0.123624,1.14628 -0.371555,1.597836 -0.236122,0.4445 -0.555122,0.779845 -0.956529,1.005623 -0.401408,0.225778 -0.808416,0.388014 -1.221632,0.486792 -0.401407,0.09878 -0.820978,0.147795 -1.257803,0.147795 -0.318767,0 -0.637251,-0.02451 -0.956013,-0.0739 -0.306962,-0.05644 -0.631725,-0.158791 -0.974103,-0.306958 -0.342377,-0.148166 -0.643568,-0.334911 -0.903304,-0.560689 -0.259733,-0.232833 -0.478165,-0.54695 -0.655256,-0.942061 -0.165285,-0.402167 -0.247531,-0.860572 -0.247531,-1.375627 0,-0.635 0.117861,-1.178319 0.353983,-1.629875 0.247931,-0.458611 0.566931,-0.801033 0.956532,-1.02681 0.401408,-0.225778 0.802654,-0.384218 1.204061,-0.47594 0.401407,-0.09878 0.814697,-0.148312 1.239718,-0.148312 z m -13.47153,0.158647 c 1.511184,0 2.685582,0.173109 3.523816,0.518831 1.40493,0.592667 2.107364,1.470815 2.107364,2.634982 0,1.255889 -0.720243,2.134553 -2.16059,2.635498 -0.826429,0.289277 -1.983018,0.433565 -3.47059,0.433565 -0.354184,0 -0.596185,-0.0283 -0.726053,-0.08475 -0.118063,-0.05645 -0.17725,-0.172428 -0.17725,-0.348816 v -5.376416 c 0,-0.162278 0.05919,-0.271701 0.17725,-0.328146 0.118062,-0.05644 0.360063,-0.08475 0.726053,-0.08475 z" id="text24" inkscape:connector-curvature="0"/>
  </g>
</svg>